<?xml version="1.0" standalone="no"?>
<!DOCTYPE svg PUBLIC "-//W3C//DTD SVG 20010904//EN"
 "http://www.w3.org/TR/2001/REC-SVG-20010904/DTD/svg10.dtd">
<svg version="1.0" xmlns="http://www.w3.org/2000/svg"
 width="546.000000pt" height="396.000000pt" viewBox="0 0 546.000000 396.000000"
 preserveAspectRatio="xMidYMid meet">
<metadata>
Created by potrace 1.16, written by Peter Selinger 2001-2019
</metadata>
<g transform="translate(0.000000,396.000000) scale(0.100000,-0.100000)"
fill="#000000" stroke="none">
<path d="M2776 3484 c-133 -32 -276 -135 -354 -256 -60 -93 -84 -173 -90 -300
l-5 -108 -213 0 c-231 0 -256 -5 -280 -51 -21 -42 -17 -75 15 -111 l29 -33
299 -5 c164 -3 306 -9 316 -14 21 -10 47 -57 47 -86 0 -28 -17 -61 -44 -82
-19 -16 -51 -18 -299 -18 -181 0 -285 4 -299 11 -11 6 -48 39 -81 73 -76 77
-136 101 -231 94 -153 -13 -261 -128 -260 -277 1 -164 121 -284 284 -284 87 0
141 25 210 97 30 32 67 64 82 72 40 21 776 21 817 0 57 -30 68 -107 22 -158
l-29 -33 -515 -5 c-561 -5 -536 -3 -557 -65 -16 -49 8 -101 57 -122 34 -14 95
-15 568 -9 481 6 531 8 540 23 6 9 29 38 53 64 78 85 199 104 310 48 104 -52
156 -132 157 -244 0 -114 -52 -195 -164 -250 -46 -24 -62 -27 -125 -23 -109 6
-181 50 -227 139 l-19 39 -570 0 c-372 0 -578 4 -596 10 -15 6 -57 42 -94 80
-56 58 -74 71 -124 85 -143 42 -281 -16 -343 -143 -22 -46 -27 -69 -27 -127 1
-87 27 -147 90 -205 61 -56 105 -73 189 -74 93 0 145 24 226 107 46 47 74 67
99 72 19 3 167 5 328 3 l294 -3 29 -33 c39 -44 39 -90 0 -134 l-29 -33 -345
-5 c-320 -5 -346 -6 -366 -24 -49 -44 -33 -127 29 -158 32 -16 74 -18 422 -18
l388 0 19 37 c43 85 117 133 217 141 153 12 296 -122 295 -277 0 -82 -24 -132
-90 -194 -65 -59 -110 -77 -197 -77 -99 0 -183 52 -230 141 l-15 29 -479 0
c-311 0 -489 4 -507 11 -15 5 -53 36 -83 67 -67 70 -115 95 -198 100 -124 8
-226 -48 -277 -153 -92 -188 45 -407 255 -407 90 0 168 39 233 117 24 28 51
48 75 55 25 8 156 10 394 8 l358 -3 27 -27 c41 -41 39 -97 -5 -141 l-32 -32
-420 -4 -420 -3 -25 -30 c-43 -51 -28 -125 30 -152 29 -14 204 -16 1564 -16
1450 0 1531 1 1531 18 0 9 -52 384 -115 832 -131 921 -218 1541 -236 1677
l-12 93 -266 2 -266 3 -6 110 c-4 61 -14 128 -22 151 -75 203 -236 353 -428
399 -79 18 -205 18 -283 -1z m286 -195 c162 -64 258 -205 261 -384 l2 -80
-405 0 -405 0 -3 45 c-2 24 2 73 8 108 43 249 311 402 542 311z"/>
</g>
</svg>
